<?xml version="1.0" encoding="utf-8"?>
<svg viewBox="0 0 500 500" xmlns="http://www.w3.org/2000/svg">
  <path style="stroke: rgb(0, 0, 0); fill: rgb(255, 255, 255);" d="M 105.759 119.917 C 108.067 131.636 91.455 139.002 86.697 148.891 C 78.39 166.157 75.691 194.441 78.885 213.157 C 83.484 240.117 105.817 256.383 120.262 277.55 C 126.18 286.222 124.281 297.158 126.007 307.279 C 126.662 311.113 129.832 314.753 131.111 318.495 C 133.812 326.4 135.622 334.309 136.399 342.699 C 138.414 364.454 132.085 382.844 120.667 400.762 C 118.991 403.393 106.363 418.438 109.99 423.908 C 111.311 425.901 113.832 426.092 115.694 427.485 C 131.032 438.956 136.427 424.667 152.001 420.74 C 157.314 419.4 162.638 422.713 167.242 424.509 C 173.75 427.05 182.313 425.74 188.889 424.897 C 196.318 423.945 198.671 421.573 205.317 419.107 C 205.895 418.893 210.47 417.505 211.244 418.28 C 217.05 424.086 217.402 431.005 219.835 438.347 C 224.112 451.253 237.086 453.651 248.845 455.121 C 254.646 455.846 260.519 455.233 265.332 451.593 C 275.025 444.26 277.925 432.535 286.228 424.205 C 289.118 421.305 293.27 416.639 297.962 417.661 C 312.973 420.928 327.826 419.021 342.727 421.562 C 350.002 422.804 353.91 430.808 359.891 434.169 C 363.466 436.177 373.332 436.668 374.941 431.757 C 378.33 421.416 375.333 406.702 372.965 396.55 C 371.068 388.417 371.678 379.196 369.055 371.329 C 367.041 365.284 362.718 359.36 360.471 352.253 C 356.46 339.565 358.642 326.618 362.341 314.286 C 369.177 291.505 383.343 270.706 396.702 251.276 C 402.252 243.204 409.976 236.029 413.571 226.715 C 419.367 211.696 415.863 193.242 414.58 177.891 C 413.867 169.359 410.795 159.705 406.296 152.342 C 398.727 139.96 385.872 131.175 375.84 121.143 C 369.859 115.162 352.493 113.812 344.027 113.364 C 321.533 112.173 299.336 113.339 279.043 124.576 C 268.775 130.262 261.132 139.74 250.775 144.831 C 247.157 146.609 237.988 139.545 234.981 138.035 C 221.012 131.018 207.755 122.881 193.145 116.817 C 174.9 109.244 156.202 109.092 137.05 111.303 C 130.635 112.043 122.371 118.86 116.719 118.86" transform="matrix(1, 0, 0, 1, 1.1368683772161603e-13, 0)"/>
  <path style="stroke: rgb(0, 0, 0); fill: rgb(255, 255, 255);" d="M 80.714 240.722 C 69.169 262.285 49.404 279.683 46.779 305.314 C 46.149 311.46 43.66 317.953 42.017 323.898 C 38.38 337.044 40.673 347.786 45.563 359.792 C 50.608 372.176 58.329 381.001 64.683 392.369 C 70.005 401.886 78.859 415.703 88.801 420.673 C 92.695 422.62 97.755 420.398 101.204 418.658 C 111.433 413.498 120.233 403.543 127.174 394.609 C 129.902 391.098 133.047 387.953 135.22 384.052 C 137.611 379.759 139.105 374.806 140.82 370.224 C 144.702 359.847 139.635 351.988 136.704 342.216 C 131.86 326.073 130.834 309.414 125.36 293.047 C 121.122 280.38 114.309 269.045 106.163 258.65 C 104.253 256.212 97.782 250.013 94.217 250.013" transform="matrix(1, 0, 0, 1, 1.1368683772161603e-13, 0)"/>
  <path style="stroke: rgb(0, 0, 0); fill: rgb(255, 255, 255);" d="M 413.542 240.348 C 409.717 245.199 404.736 249.929 400.376 254.265 C 396.189 258.431 394.128 266.448 391.273 271.531 C 384.22 284.084 375.722 295.448 369.145 308.361 C 363.777 318.901 356.889 327.62 356.104 339.853 C 354.88 358.884 366.005 386.148 374.916 402.099 C 378.395 408.326 382.562 418.6 390.265 420.276 C 393.891 421.066 397.937 417.281 401.066 416.06 C 410.345 412.44 416.791 408.183 424.084 401.361 C 459.773 367.971 462.342 319.477 436.969 279.113 C 432.228 271.572 428.522 263.203 423.28 255.971 C 421.886 254.046 422.14 249.766 419.762 249.766" transform="matrix(1, 0, 0, 1, 1.1368683772161603e-13, 0)"/>
  <path style="stroke: rgb(0, 0, 0); fill: rgb(255, 255, 255);" d="M 302.206 424.326 C 297.861 422.579 289.695 419.781 285.151 421.269 C 282.644 422.091 281.503 429.453 280.618 431.697 C 276.805 441.374 275.095 460.617 280.251 470.389 C 287.782 484.661 300.892 476.32 312.034 473.852 C 316.996 472.752 321.747 475.657 326.537 476.041 C 334.34 476.664 348.183 471.152 352.935 463.9 C 359.602 453.727 366.108 431.765 352.872 422.941 C 345.354 417.929 334.184 416.702 325.393 416.702 C 320.842 416.702 307.745 414.739 304.526 417.903" transform="matrix(1, 0, 0, 1, 1.1368683772161603e-13, 0)"/>
  <path style="stroke: rgb(0, 0, 0); fill: rgb(255, 255, 255);" d="M 174.437 427.873 C 153.425 413.194 138.791 433.6 138.791 453.064 C 138.791 459.221 138.638 469.69 144.765 473.113 C 148.977 475.465 153.581 476.389 158.291 477.171 C 165.564 478.379 168.568 477.085 175.045 476.02 C 184.198 474.516 202.466 480.491 209.621 472.156 C 219.386 460.781 221.548 445.437 213.608 432.94 C 212.211 430.74 210.977 427.322 208.6 425.981 C 202.819 422.719 196.267 422.134 189.634 422.134" transform="matrix(1, 0, 0, 1, 1.1368683772161603e-13, 0)"/>
  <path style="stroke: rgb(0, 0, 0); fill: rgb(255, 255, 255);" d="M 97.966 33.275 C 91.843 42.344 97.555 52.578 99.278 62.678 C 101.284 74.443 100.863 86.678 103.772 98.309 C 104.945 103.006 106.252 113.687 111.743 115.819 C 119.045 118.654 127.614 115.554 134.64 113.802 C 144.522 111.338 154.283 110.143 164.22 107.935 C 168.4 107.006 174.956 104.823 179.341 105.914 C 204.852 112.264 221.512 134.776 245.512 142.589 C 249.667 143.941 256.227 138.744 260.083 137.223 C 274.59 131.506 286.961 115.786 302.697 113.139 C 318.572 110.469 335.703 111.605 351.692 113.346 C 359.563 114.202 371.813 116.912 379.582 114.953 C 389.992 112.328 396.289 92.309 398.613 83.835 C 400.798 75.867 402.453 67.794 403.317 59.571 C 404.226 50.93 404.027 37.685 394.474 33.954 C 388.693 31.696 380.969 34.935 375.962 37.427 C 364.149 43.307 348.888 50.951 335.915 52.826 C 313.904 56.008 290.537 43.168 269.235 39.599 C 243.972 35.365 218.824 38.973 194.419 44.973 C 172.889 50.267 155.889 50.759 134.732 44.927 C 127.533 42.943 120.563 40.612 113.207 39.686 C 111.203 39.434 108.561 38.965 106.685 38.34 C 106.127 38.153 103.601 36.728 103.601 37.216" transform="matrix(1, 0, 0, 1, 1.1368683772161603e-13, 0)"/>
  <g transform="matrix(0.06433500349521637, 0, 0, -0.06433500349521637, -82.13265991210926, 579.9436035156251)" fill="#000000" stroke="none" style="">
    <path d="M2753 8704 c-27 -10 -61 -36 -92 -70 -78 -85 -92 -140 -98 -396 -9 -321 15 -475 119 -785 l51 -153 -50 -82 c-162 -265 -298 -621 -348 -913 -40 -226 -26 -573 30 -791 14 -52 25 -103 25 -114 0 -12 -27 -49 -59 -83 -167 -174 -317 -417 -420 -680 -147 -377 -173 -854 -66 -1221 80 -273 194 -488 370 -699 187 -224 450 -419 794 -589 l189 -93 7 -95 c3 -52 16 -123 27 -158 21 -66 105 -201 139 -225 10 -8 16 -17 12 -20 -3 -4 -2 -7 4 -7 6 0 39 -19 74 -43 87 -58 152 -77 258 -77 126 0 238 38 311 106 l25 23 45 -35 c53 -43 122 -79 169 -89 18 -4 69 -7 113 -7 97 1 182 27 267 82 32 21 62 35 66 32 4 -4 5 0 3 8 -2 9 3 14 12 12 8 -2 12 -1 8 3 -4 4 11 30 33 58 22 27 46 65 54 84 l14 33 273 0 273 0 25 -52 c28 -58 115 -152 175 -190 94 -58 209 -82 328 -67 81 10 143 36 215 90 l53 40 19 -23 c22 -29 102 -74 167 -93 63 -19 184 -19 258 0 169 44 293 158 366 335 25 61 32 94 36 176 l6 101 131 58 c311 137 539 290 755 506 259 260 455 639 510 989 47 294 26 613 -59 897 -92 311 -264 617 -472 838 l-60 65 30 127 c53 222 68 390 53 588 -28 356 -169 783 -362 1098 l-60 98 51 146 c59 171 106 389 120 564 12 143 -1 381 -26 475 -40 157 -149 244 -286 232 -41 -4 -101 -29 -268 -111 -211 -104 -379 -168 -583 -222 -50 -14 -103 -25 -116 -25 -13 0 -57 16 -99 35 -96 45 -292 117 -425 154 -481 138 -1069 133 -1557 -15 -149 -45 -192 -61 -320 -119 -150 -68 -137 -68 -386 11 -190 59 -346 122 -559 225 -146 71 -211 83 -292 53z m304 -435 c219 -119 653 -253 818 -253 77 -1 84 1 185 53 212 108 459 186 720 226 232 36 550 30 768 -15 231 -47 418 -110 626 -212 138 -67 156 -69 322 -37 245 47 474 128 704 250 73 38 135 68 137 65 3 -3 8 -63 10 -133 13 -329 -65 -618 -235 -871 -7 -10 -29 -3 -98 31 -239 119 -509 171 -761 148 -424 -39 -827 -248 -1090 -565 l-40 -48 -134 134 c-201 203 -388 319 -656 408 -169 56 -278 73 -463 73 -243 0 -416 -38 -630 -139 l-114 -55 -18 23 c-27 36 -113 216 -143 298 -54 152 -76 272 -82 461 -3 97 -3 193 1 213 l7 37 56 -31 c31 -18 80 -45 110 -61z m1073 -1112 c95 -25 263 -91 330 -129 166 -97 326 -243 449 -410 79 -108 106 -133 162 -150 50 -15 106 1 155 44 19 17 78 84 130 149 52 64 127 147 167 184 370 339 869 434 1305 250 298 -126 520 -327 652 -593 79 -159 113 -325 112 -547 0 -283 -77 -526 -243 -776 -159 -238 -403 -413 -699 -502 -141 -43 -231 -57 -421 -66 -140 -6 -148 -8 -183 -34 -84 -64 -96 -176 -27 -250 45 -49 71 -57 188 -57 177 0 348 26 527 81 54 17 100 28 102 26 2 -2 -6 -28 -20 -58 -126 -287 -183 -741 -132 -1069 39 -259 169 -541 343 -747 26 -31 39 -53 30 -53 -7 0 -36 -11 -63 -25 -27 -14 -50 -25 -51 -25 -1 0 -18 24 -36 53 -155 242 -460 303 -678 135 l-45 -35 -35 30 c-95 82 -262 123 -379 93 -214 -54 -355 -211 -395 -440 -8 -49 -15 -108 -15 -132 l0 -44 -244 0 -245 0 -5 43 c-3 23 -8 75 -11 114 -18 242 -209 440 -452 468 -104 12 -237 -29 -320 -99 -17 -14 -34 -26 -37 -26 -3 0 -25 15 -49 33 -211 161 -504 104 -659 -127 -23 -33 -42 -62 -43 -64 -2 -2 -92 38 -123 54 -2 1 24 37 58 79 133 168 197 284 253 460 65 202 82 313 81 545 0 280 -33 462 -129 722 -25 67 -43 123 -41 125 2 2 41 -10 87 -27 166 -62 546 -115 639 -90 135 36 179 197 79 292 -44 42 -55 45 -231 53 -165 7 -276 27 -419 75 -248 82 -433 202 -578 374 -210 250 -315 517 -328 837 -12 290 46 510 193 737 68 105 202 244 298 311 152 105 370 194 550 226 121 21 325 13 446 -18z m-1543 -2125 c11 -21 99 -141 194 -267 204 -271 285 -417 362 -655 66 -202 87 -309 94 -482 16 -395 -96 -714 -331 -947 l-74 -74 -54 39 c-352 257 -556 571 -650 999 -8 39 -13 135 -13 275 0 185 3 231 23 328 24 120 68 252 124 373 33 71 144 256 197 329 14 19 29 39 33 45 28 38 61 75 66 75 4 0 17 -17 29 -38z m5115 11 c86 -92 228 -322 298 -484 142 -331 170 -725 75 -1054 -74 -254 -232 -519 -404 -678 -58 -53 -146 -126 -232 -190 l-37 -28 -58 53 c-165 151 -295 414 -340 686 -33 202 -4 478 76 720 79 239 158 406 245 519 87 112 292 398 316 440 13 24 27 43 30 43 3 0 17 -12 31 -27z m-3888 -2697 c23 -13 51 -42 63 -63 21 -37 22 -53 24 -235 1 -209 -3 -229 -53 -274 -38 -35 -64 -44 -124 -44 -74 0 -135 34 -164 90 -18 35 -20 59 -20 223 0 136 4 193 14 218 41 98 167 139 260 85z m623 13 c40 -15 73 -48 94 -94 16 -34 19 -66 19 -220 0 -168 -2 -184 -22 -225 -39 -76 -111 -108 -197 -89 -58 13 -97 42 -121 89 -18 35 -20 60 -20 224 0 196 5 223 48 270 49 52 132 71 199 45z m1490 0 c34 -13 80 -55 99 -91 21 -40 21 -395 0 -435 -39 -76 -95 -107 -181 -101 -78 5 -125 37 -150 102 -14 37 -16 73 -13 227 4 196 9 218 60 266 44 41 124 55 185 32z m690 -25 c68 -54 73 -75 73 -283 0 -167 -2 -189 -21 -228 -29 -60 -87 -93 -163 -93 -64 0 -98 14 -140 58 -38 40 -43 75 -40 275 2 155 4 172 26 215 33 64 92 95 170 90 46 -3 66 -11 95 -34z"/>
    <path d="M3707 6590 c-155 -41 -293 -139 -383 -271 -92 -135 -129 -270 -121 -439 9 -190 73 -335 207 -470 129 -131 279 -190 478 -190 200 0 353 61 488 195 126 125 192 265 209 446 19 205 -71 433 -228 574 -70 63 -209 137 -302 160 -84 21 -261 19 -348 -5z m81 -206 c77 -32 130 -107 139 -200 20 -196 -201 -314 -364 -194 -95 70 -120 205 -57 306 55 90 183 130 282 88z m-124 -584 c32 -12 66 -65 66 -103 0 -99 -124 -153 -196 -86 -94 89 7 236 130 189z"/>
    <path d="M6185 6596 c-190 -48 -325 -141 -426 -294 -111 -168 -145 -373 -94 -567 9 -33 35 -98 58 -145 57 -116 178 -240 287 -293 208 -100 448 -107 635 -16 246 119 389 355 387 634 -1 246 -114 458 -311 587 -112 73 -208 101 -361 104 -78 2 -144 -2 -175 -10z m23 -215 c20 -11 51 -34 69 -53 115 -120 67 -322 -90 -374 -146 -49 -307 62 -307 211 0 87 78 202 152 224 57 16 136 13 176 -8z m-118 -586 c102 -53 60 -215 -55 -215 -45 0 -96 31 -111 66 -19 46 -18 66 9 105 39 58 98 74 157 44z"/>
    <path d="M5049 5717 c-106 -40 -353 -203 -450 -297 -84 -82 -99 -152 -53 -243 33 -67 209 -319 326 -471 116 -148 159 -181 236 -181 110 0 158 45 391 365 137 188 199 292 208 344 11 67 -14 125 -84 193 -68 66 -279 212 -380 263 -73 36 -143 46 -194 27z m172 -396 c55 -39 106 -72 112 -74 6 -2 -14 -41 -44 -88 -31 -46 -80 -126 -110 -176 -29 -51 -57 -93 -60 -93 -4 0 -24 28 -45 63 -20 34 -71 113 -112 175 -41 62 -73 114 -71 116 2 1 29 17 59 34 30 17 78 49 105 71 28 22 53 40 57 40 4 1 53 -30 109 -68z"/>
    <path d="M4184 4031 c-66 -30 -112 -117 -101 -188 13 -80 94 -153 169 -153 49 1 110 32 146 76 57 69 52 159 -13 226 -57 59 -127 73 -201 39z"/>
    <path d="M4848 4021 c-31 -28 -33 -33 -33 -98 0 -108 55 -192 161 -244 69 -34 196 -34 269 -1 134 61 206 202 156 305 -28 58 -65 75 -122 58 -34 -10 -44 -20 -60 -57 -28 -63 -54 -84 -104 -84 -47 0 -70 19 -103 86 -35 69 -108 85 -164 35z"/>
    <path d="M5892 4029 c-133 -66 -120 -275 21 -328 95 -36 207 26 235 131 28 102 -66 217 -178 218 -19 0 -54 -10 -78 -21z"/>
    <path d="M4258 3481 c-31 -27 -33 -34 -32 -93 1 -108 71 -211 179 -260 73 -33 181 -32 256 3 108 51 179 153 179 259 0 74 -28 110 -90 117 -55 6 -93 -20 -117 -78 -42 -105 -159 -106 -199 -3 -32 84 -115 110 -176 55z"/>
    <path d="M5433 3490 c-63 -38 -66 -136 -8 -235 81 -138 268 -190 415 -115 159 81 225 282 116 354 -57 37 -123 11 -154 -62 -24 -56 -57 -82 -102 -82 -52 0 -86 25 -106 76 -29 77 -96 104 -161 64z"/>
    <path d="M4863 3112 c-97 -76 -15 -275 135 -326 61 -21 175 -20 236 1 98 35 176 133 176 221 0 79 -40 122 -113 122 -37 0 -69 -27 -86 -73 -22 -58 -134 -71 -169 -19 -44 64 -79 92 -118 92 -22 0 -49 -8 -61 -18z"/>
  </g>
</svg>