<svg version="1.1" xmlns="http://www.w3.org/2000/svg" viewBox="0 0 1573.501953125 454.41015625" width="3147.00390625" height="908.8203125">
  <!-- svg-source:excalidraw -->
  
  <defs>
    <style class="style-fonts">
      @font-face {
        font-family: "Virgil";
        src: url("https://excalidraw.com/Virgil.woff2");
      }
      @font-face {
        font-family: "Cascadia";
        src: url("https://excalidraw.com/Cascadia.woff2");
      }
      @font-face {
        font-family: "Assistant";
        src: url("https://excalidraw.com/Assistant-Regular.woff2");
      }
    </style>
    
  </defs>
  <g stroke-linecap="round" transform="translate(10 54.384521484375) rotate(0 144.685546875 169.19140625)"><path d="M32 0 C110.45 -1.15, 185.67 0.87, 257.37 0 C279.6 -0.4, 291.22 11.56, 289.37 32 C289.84 97.44, 289.17 166.28, 289.37 306.38 C287.63 325.64, 277.61 340.33, 257.37 338.38 C194.72 335.15, 124.43 335.07, 32 338.38 C7.1 341.49, -0.14 330.48, 0 306.38 C-1.79 235.06, -1.81 168.03, 0 32 C2.21 11.72, 8.89 1.46, 32 0" stroke="none" stroke-width="0" fill="#b2f2bb"></path><path d="M32 0 C122.9 0.68, 212.34 1.71, 257.37 0 M32 0 C87.09 1.47, 141.61 2.22, 257.37 0 M257.37 0 C279 0.03, 290.93 10.42, 289.37 32 M257.37 0 C280.06 1.37, 288.59 9.85, 289.37 32 M289.37 32 C288.89 127.72, 288.95 222.37, 289.37 306.38 M289.37 32 C291.16 141.28, 291.42 252.1, 289.37 306.38 M289.37 306.38 C290.53 328.14, 277.8 338.01, 257.37 338.38 M289.37 306.38 C289.92 325.71, 277.36 340.33, 257.37 338.38 M257.37 338.38 C174.01 339.73, 90.17 339.67, 32 338.38 M257.37 338.38 C210.63 338.95, 162.76 338.4, 32 338.38 M32 338.38 C12.05 338.32, 0.81 327.48, 0 306.38 M32 338.38 C11.99 337.2, 1.83 325.46, 0 306.38 M0 306.38 C1.44 197.32, 2.46 88.24, 0 32 M0 306.38 C0.75 244.92, 0.6 184.37, 0 32 M0 32 C1.73 9.92, 9.34 1.18, 32 0 M0 32 C-0.21 8.63, 11.01 0.79, 32 0" stroke="#1e1e1e" stroke-width="2" fill="none"></path></g><g transform="translate(102.63558959960938 59.384521484375) rotate(0 52.049957275390625 12.5)"><text x="52.049957275390625" y="0" font-family="Virgil, Segoe UI Emoji" font-size="20px" fill="#1e1e1e" text-anchor="middle" style="white-space: pre;" direction="ltr" dominant-baseline="text-before-edge">Extraction</text></g><g stroke-linecap="round" transform="translate(32.38671875 203.833740234375) rotate(0 126.54296875 35.19140625)"><path d="M17.6 0 C98.75 -3.57, 183.13 1.35, 235.49 0 C246.89 3.34, 256.35 9.27, 253.09 17.6 C254.89 28.75, 252.22 40.78, 253.09 52.79 C250.63 61.92, 244.79 72.76, 235.49 70.38 C156.42 69.16, 81.99 67, 17.6 70.38 C5.85 67.67, 2.63 62.03, 0 52.79 C-3.05 44.04, 1.12 31.57, 0 17.6 C-0.86 3.45, 9 3.04, 17.6 0" stroke="none" stroke-width="0" fill="#ffffff"></path><path d="M17.6 0 C90.78 -0.11, 163.9 -1.47, 235.49 0 M17.6 0 C96.1 -0.25, 173.86 -1.16, 235.49 0 M235.49 0 C247.65 1.41, 253.11 4.2, 253.09 17.6 M235.49 0 C248.66 1.52, 252.74 6.44, 253.09 17.6 M253.09 17.6 C252.55 29.42, 252.73 39.92, 253.09 52.79 M253.09 17.6 C252.57 28.75, 252.23 40, 253.09 52.79 M253.09 52.79 C253.74 63.28, 246.49 69.28, 235.49 70.38 M253.09 52.79 C253.6 65.59, 246.04 71.01, 235.49 70.38 M235.49 70.38 C163.97 72.74, 94.08 72.77, 17.6 70.38 M235.49 70.38 C176.89 70.7, 117.76 70.72, 17.6 70.38 M17.6 70.38 C6.01 71.7, -0.34 64.5, 0 52.79 M17.6 70.38 C7.21 71.33, -0.78 63.79, 0 52.79 M0 52.79 C-1.5 42.13, 1.56 30.87, 0 17.6 M0 52.79 C-0.13 44.31, -0.57 34.92, 0 17.6 M0 17.6 C1.5 4.61, 4.76 1.16, 17.6 0 M0 17.6 C2.01 8.05, 5.02 0.72, 17.6 0" stroke="#1e1e1e" stroke-width="2" fill="none"></path></g><g transform="translate(114.13972473144531 226.525146484375) rotate(0 44.78996276855469 12.5)"><text x="44.78996276855469" y="0" font-family="Virgil, Segoe UI Emoji" font-size="20px" fill="#1e1e1e" text-anchor="middle" style="white-space: pre;" direction="ltr" dominant-baseline="text-before-edge">PyMuPDF</text></g><g stroke-linecap="round" transform="translate(34.53125 111.267333984375) rotate(0 126.54296875 35.19140625)"><path d="M17.6 0 C102.66 -4.32, 189.02 -4.92, 235.49 0 C247.3 2.21, 249.93 2.43, 253.09 17.6 C255.84 30.23, 253.85 44.31, 253.09 52.79 C254.7 65.18, 243.78 73.09, 235.49 70.38 C187.23 71.75, 142.51 68.99, 17.6 70.38 C9.03 67.11, 2.77 63.74, 0 52.79 C-0.39 40.65, 2.21 31.54, 0 17.6 C0.03 2.56, 5.81 -0.84, 17.6 0" stroke="none" stroke-width="0" fill="#ffffff"></path><path d="M17.6 0 C96.69 -0.21, 177.62 1.04, 235.49 0 M17.6 0 C97.27 1.21, 175.93 0.36, 235.49 0 M235.49 0 C246.08 1.96, 251.47 4.8, 253.09 17.6 M235.49 0 C248.29 -0.13, 253 5, 253.09 17.6 M253.09 17.6 C254.74 26.23, 254.09 34.55, 253.09 52.79 M253.09 17.6 C253.54 25.62, 253.71 34.86, 253.09 52.79 M253.09 52.79 C254.01 66.39, 246.91 69.49, 235.49 70.38 M253.09 52.79 C251.58 63.66, 249.27 69.29, 235.49 70.38 M235.49 70.38 C154.29 68.23, 73.56 69.33, 17.6 70.38 M235.49 70.38 C179.52 72.21, 123.26 71.01, 17.6 70.38 M17.6 70.38 C5.89 71.19, 1.68 65.51, 0 52.79 M17.6 70.38 C4.74 70.05, -1.13 62.56, 0 52.79 M0 52.79 C-1.71 38.03, 1.24 28.03, 0 17.6 M0 52.79 C-0.54 45.59, -1.02 36.18, 0 17.6 M0 17.6 C0.35 5.09, 6.74 1.69, 17.6 0 M0 17.6 C0.37 4.06, 5.26 -0.36, 17.6 0" stroke="#1e1e1e" stroke-width="2" fill="none"></path></g><g transform="translate(129.6242446899414 133.958740234375) rotate(0 31.449974060058594 12.5)"><text x="31.449974060058594" y="0" font-family="Virgil, Segoe UI Emoji" font-size="20px" fill="#1e1e1e" text-anchor="middle" style="white-space: pre;" direction="ltr" dominant-baseline="text-before-edge">PyPDF</text></g><g stroke-linecap="round" transform="translate(30.68359375 298.001708984375) rotate(0 126.54296875 35.19140625)"><path d="M17.6 0 C82.6 1.61, 140.56 -0.74, 235.49 0 C247.33 -0.15, 252.54 6.14, 253.09 17.6 C250.73 24.09, 253.33 35.45, 253.09 52.79 C252.52 62.27, 245.87 72.28, 235.49 70.38 C172.02 72.3, 109.12 68.49, 17.6 70.38 C3.04 67.2, -1.57 65.94, 0 52.79 C-1.02 43.56, -1.56 34.72, 0 17.6 C2.9 9.03, 5.32 -1.61, 17.6 0" stroke="none" stroke-width="0" fill="#ffffff"></path><path d="M17.6 0 C62.98 -0.97, 103.18 -2.5, 235.49 0 M17.6 0 C104.81 1.81, 190.96 2.35, 235.49 0 M235.49 0 C246.26 -0.62, 253.2 4.61, 253.09 17.6 M235.49 0 C244.99 1.73, 252.06 4.29, 253.09 17.6 M253.09 17.6 C251.56 28.26, 254.67 39.51, 253.09 52.79 M253.09 17.6 C253.76 25.28, 252.09 33.59, 253.09 52.79 M253.09 52.79 C252.28 63.74, 246.42 69.08, 235.49 70.38 M253.09 52.79 C253.32 64.08, 248.4 70.58, 235.49 70.38 M235.49 70.38 C169.91 71.47, 104.94 69.76, 17.6 70.38 M235.49 70.38 C167.56 71.57, 99.78 71.2, 17.6 70.38 M17.6 70.38 C4.02 70.57, 1.93 62.55, 0 52.79 M17.6 70.38 C4.64 72.54, 1.05 66.55, 0 52.79 M0 52.79 C-1.09 46.79, 1.41 37.36, 0 17.6 M0 52.79 C0.55 40.93, -0.31 28.07, 0 17.6 M0 17.6 C-0.97 6.88, 5.73 -1.43, 17.6 0 M0 17.6 C-0.32 4.4, 7.66 -2.22, 17.6 0" stroke="#1e1e1e" stroke-width="2" fill="none"></path></g><g transform="translate(92.54662322998047 320.693115234375) rotate(0 64.67993927001953 12.5)"><text x="64.67993927001953" y="0" font-family="Virgil, Segoe UI Emoji" font-size="20px" fill="#1e1e1e" text-anchor="middle" style="white-space: pre;" direction="ltr" dominant-baseline="text-before-edge">Unstructured</text></g><g stroke-linecap="round" transform="translate(343.396484375 61.454833984375) rotate(0 144.685546875 159.333984375)"><path d="M32 0 C102.38 1.05, 172.54 -0.42, 257.37 0 C277.08 2.65, 287.58 10.83, 289.37 32 C287.7 129.08, 285.31 221.06, 289.37 286.67 C289.81 306.68, 280.93 319.07, 257.37 318.67 C193.3 318.05, 127.68 316.61, 32 318.67 C10.95 317.67, -3.11 308.64, 0 286.67 C3 189.85, 0.32 89.41, 0 32 C-3.3 9.83, 12.07 1.13, 32 0" stroke="none" stroke-width="0" fill="#a5d8ff"></path><path d="M32 0 C103 -0.73, 176.44 -1.7, 257.37 0 M32 0 C117.15 0.64, 202.48 -0.32, 257.37 0 M257.37 0 C277.67 0.61, 290.65 12.48, 289.37 32 M257.37 0 C276.6 -2.19, 290.88 10.65, 289.37 32 M289.37 32 C289.85 124.68, 289.95 217.59, 289.37 286.67 M289.37 32 C288.41 106.66, 288.11 182.18, 289.37 286.67 M289.37 286.67 C290.08 306.76, 277.13 317.35, 257.37 318.67 M289.37 286.67 C290.75 306.65, 277.82 320.82, 257.37 318.67 M257.37 318.67 C191.71 318.88, 128.2 318.9, 32 318.67 M257.37 318.67 C197.35 318.73, 135.98 318.02, 32 318.67 M32 318.67 C9.2 319.66, -0.09 309.57, 0 286.67 M32 318.67 C11.11 319.59, 1.66 307.82, 0 286.67 M0 286.67 C-0.75 191.15, -2.01 94.21, 0 32 M0 286.67 C0.26 226.42, 1.35 166.63, 0 32 M0 32 C-1.33 12.37, 10.04 0.36, 32 0 M0 32 C-1.82 11.66, 9.76 -0.98, 32 0" stroke="#1e1e1e" stroke-width="2" fill="none"></path></g><g transform="translate(449.0820770263672 66.454833984375) rotate(0 38.99995422363281 12.5)"><text x="38.99995422363281" y="0" font-family="Virgil, Segoe UI Emoji" font-size="20px" fill="#1e1e1e" text-anchor="middle" style="white-space: pre;" direction="ltr" dominant-baseline="text-before-edge">Splitting</text></g><g stroke-linecap="round" transform="translate(360.41015625 117.322021484375) rotate(0 126.54296875 35.19140625)"><path d="M17.6 0 C99.02 -0.37, 185.07 -4.31, 235.49 0 C247.89 -0.03, 249.96 3.81, 253.09 17.6 C256.17 29.67, 253.67 36.39, 253.09 52.79 C256.13 62.48, 244.22 72.89, 235.49 70.38 C164.22 70.32, 94.83 73.68, 17.6 70.38 C6.56 71.54, -3.24 61.57, 0 52.79 C1.81 45.66, 0.48 34.49, 0 17.6 C1.48 5.38, 5.75 2.76, 17.6 0" stroke="none" stroke-width="0" fill="#ffffff"></path><path d="M17.6 0 C72.1 -0.84, 126.17 -0.94, 235.49 0 M17.6 0 C60.4 0.41, 105.63 -0.37, 235.49 0 M235.49 0 C246.8 -0.21, 252.74 4.89, 253.09 17.6 M235.49 0 C249.17 -1.92, 254.43 6.56, 253.09 17.6 M253.09 17.6 C253.05 27.29, 252.71 40.94, 253.09 52.79 M253.09 17.6 C253.55 30.39, 252.55 45.95, 253.09 52.79 M253.09 52.79 C252.94 66.02, 245.44 69.99, 235.49 70.38 M253.09 52.79 C253.85 64.04, 246.44 70.89, 235.49 70.38 M235.49 70.38 C171.43 72.78, 105.53 73.02, 17.6 70.38 M235.49 70.38 C150.64 70.2, 67.02 70.32, 17.6 70.38 M17.6 70.38 C5.92 68.61, 0.95 64.49, 0 52.79 M17.6 70.38 C4.56 70.58, 1.02 65.25, 0 52.79 M0 52.79 C-1.57 41.48, -0.96 27.33, 0 17.6 M0 52.79 C-0.6 40.35, 0.61 28.36, 0 17.6 M0 17.6 C-1.33 5.13, 4.24 1.93, 17.6 0 M0 17.6 C-2 8.14, 6.68 0.84, 17.6 0" stroke="#1e1e1e" stroke-width="2" fill="none"></path></g><g transform="translate(394.02320098876953 140.013427734375) rotate(0 92.92992401123047 12.5)"><text x="92.92992401123047" y="0" font-family="Virgil, Segoe UI Emoji" font-size="20px" fill="#1e1e1e" text-anchor="middle" style="white-space: pre;" direction="ltr" dominant-baseline="text-before-edge">Character Chunking</text></g><g stroke-linecap="round" transform="translate(363.45703125 292.513427734375) rotate(0 126.54296875 35.19140625)"><path d="M17.6 0 C81.34 2.26, 142.74 0.4, 235.49 0 C245.5 -1.02, 253.62 5.46, 253.09 17.6 C249.99 27.63, 255.68 38.72, 253.09 52.79 C254.74 65.07, 246.68 73.27, 235.49 70.38 C163.8 74.58, 91.14 71.87, 17.6 70.38 C8.07 71.33, 1.05 66.43, 0 52.79 C2.59 44.16, 3.18 41.41, 0 17.6 C0.6 4.2, 8.69 -2.71, 17.6 0" stroke="none" stroke-width="0" fill="#ffffff"></path><path d="M17.6 0 C82.37 2.15, 146.82 0.54, 235.49 0 M17.6 0 C77.9 -0.04, 139.69 0.58, 235.49 0 M235.49 0 C249.13 -1.15, 252.95 4.45, 253.09 17.6 M235.49 0 C246.91 0.03, 252.66 6.44, 253.09 17.6 M253.09 17.6 C252.52 23.03, 253.31 32.84, 253.09 52.79 M253.09 17.6 C252.79 29.25, 252.38 39.58, 253.09 52.79 M253.09 52.79 C251.72 64.54, 246.27 72.12, 235.49 70.38 M253.09 52.79 C254.61 62.89, 245.65 69.83, 235.49 70.38 M235.49 70.38 C186.35 71.03, 133.77 69.2, 17.6 70.38 M235.49 70.38 C149.43 69.85, 61.05 69.38, 17.6 70.38 M17.6 70.38 C6.98 71.77, 0.05 62.97, 0 52.79 M17.6 70.38 C8.05 70.2, -0.49 65.1, 0 52.79 M0 52.79 C-1.57 39.55, 0.66 30.19, 0 17.6 M0 52.79 C-0.05 41.52, 0.33 32.57, 0 17.6 M0 17.6 C0.17 6.35, 7.51 1.25, 17.6 0 M0 17.6 C2 4.48, 5.66 -1.91, 17.6 0" stroke="#1e1e1e" stroke-width="2" fill="none"></path></g><g transform="translate(404.4500732421875 315.204833984375) rotate(0 85.5499267578125 12.5)"><text x="85.5499267578125" y="0" font-family="Virgil, Segoe UI Emoji" font-size="20px" fill="#1e1e1e" text-anchor="middle" style="white-space: pre;" direction="ltr" dominant-baseline="text-before-edge">Semantic Chunking</text></g><g stroke-linecap="round" transform="translate(1274.130859375 120.509521484375) rotate(0 144.685546875 109.1953125)"><path d="M32 0 C111.58 2.51, 190.39 1.22, 257.37 0 C276.83 2.48, 287.18 7.29, 289.37 32 C288.82 78.31, 290.95 130.63, 289.37 186.39 C290.32 205.79, 280.57 215.75, 257.37 218.39 C183.5 220.86, 113 219.4, 32 218.39 C10.12 218.4, 3.54 207.14, 0 186.39 C-1.25 133.96, -3.3 76.55, 0 32 C0.7 7.79, 9.37 -2.65, 32 0" stroke="none" stroke-width="0" fill="#ffd8a8"></path><path d="M32 0 C76.26 -0.29, 123.33 -0.87, 257.37 0 M32 0 C81.23 -0.84, 131.7 0.39, 257.37 0 M257.37 0 C280.21 1.54, 291.25 10.97, 289.37 32 M257.37 0 C276.66 1.88, 288.58 11.78, 289.37 32 M289.37 32 C291.73 88.69, 291.66 142.93, 289.37 186.39 M289.37 32 C290.89 84.14, 290.19 137.71, 289.37 186.39 M289.37 186.39 C287.5 209.58, 277.22 217.45, 257.37 218.39 M289.37 186.39 C288.95 208.9, 278.26 220.16, 257.37 218.39 M257.37 218.39 C190.78 219.23, 122.81 217.83, 32 218.39 M257.37 218.39 C175.78 219.38, 94.23 219.21, 32 218.39 M32 218.39 C10.08 216.63, 1.91 209.47, 0 186.39 M32 218.39 C8.85 217.91, -0.98 207.93, 0 186.39 M0 186.39 C0.85 139.88, 1.1 95.48, 0 32 M0 186.39 C1.02 136.41, 1.63 88.35, 0 32 M0 32 C1.46 12.48, 10.57 -0.32, 32 0 M0 32 C2.02 8.65, 12.93 -1.25, 32 0" stroke="#1e1e1e" stroke-width="2" fill="none"></path></g><g transform="translate(1386.3364334106445 125.509521484375) rotate(0 32.47997283935547 12.5)"><text x="32.47997283935547" y="0" font-family="Virgil, Segoe UI Emoji" font-size="20px" fill="#1e1e1e" text-anchor="middle" style="white-space: pre;" direction="ltr" dominant-baseline="text-before-edge">Search</text></g><g stroke-linecap="round" transform="translate(1291.732421875 252.952880859375) rotate(0 126.54296875 35.19140625)"><path d="M17.6 0 C96.88 4.48, 171.39 3.25, 235.49 0 C249.88 -2.66, 256.08 5.18, 253.09 17.6 C255.2 28.07, 253.94 41.76, 253.09 52.79 C251.21 62.24, 245.99 67.41, 235.49 70.38 C166.3 73.97, 98.16 74.72, 17.6 70.38 C5.6 73.65, 1.91 62.29, 0 52.79 C0.57 45.09, 0.12 33.54, 0 17.6 C1.69 5.22, 5.88 1.22, 17.6 0" stroke="none" stroke-width="0" fill="#ffffff"></path><path d="M17.6 0 C86.14 -0.41, 156.68 -1.41, 235.49 0 M17.6 0 C71.11 1.77, 124.4 1.38, 235.49 0 M235.49 0 C246.85 1.49, 255.05 7.17, 253.09 17.6 M235.49 0 C245.02 -1.64, 253.79 4.01, 253.09 17.6 M253.09 17.6 C251.98 27.03, 253.96 35.53, 253.09 52.79 M253.09 17.6 C252.47 28.43, 252.12 36.81, 253.09 52.79 M253.09 52.79 C255.08 63.85, 247.96 69.81, 235.49 70.38 M253.09 52.79 C252.3 62.66, 245.72 71.13, 235.49 70.38 M235.49 70.38 C167.01 71.63, 96.65 69.87, 17.6 70.38 M235.49 70.38 C158.94 69.83, 80.29 70.29, 17.6 70.38 M17.6 70.38 C4.73 69.88, -0.79 62.65, 0 52.79 M17.6 70.38 C4.66 69.71, -2.15 63.88, 0 52.79 M0 52.79 C0.1 44.84, -0.34 33.68, 0 17.6 M0 52.79 C-0.96 43.85, -0.04 34.58, 0 17.6 M0 17.6 C-0.63 6.4, 7.11 1.19, 17.6 0 M0 17.6 C-0.93 5.95, 7.02 -0.85, 17.6 0" stroke="#1e1e1e" stroke-width="2" fill="none"></path></g><g transform="translate(1302.005470275879 275.644287109375) rotate(0 116.2699203491211 12.5)"><text x="116.2699203491211" y="0" font-family="Virgil, Segoe UI Emoji" font-size="20px" fill="#1e1e1e" text-anchor="middle" style="white-space: pre;" direction="ltr" dominant-baseline="text-before-edge">Max-Marginal Relevance</text></g><g stroke-linecap="round" transform="translate(1293.876953125 160.156005859375) rotate(0 126.54296875 35.19140625)"><path d="M17.6 0 C97.47 -2.89, 175.32 -1.18, 235.49 0 C248.3 2.27, 254.22 7.58, 253.09 17.6 C251.29 24.75, 251.93 33.5, 253.09 52.79 C253.39 61.4, 249.35 68.09, 235.49 70.38 C158.92 75.75, 84.48 70.97, 17.6 70.38 C5 71.88, -2.87 65.35, 0 52.79 C1.63 39.61, -0.05 28.95, 0 17.6 C-0.98 5.23, 6.2 2.27, 17.6 0" stroke="none" stroke-width="0" fill="#ffffff"></path><path d="M17.6 0 C75.63 0.59, 134.34 2.15, 235.49 0 M17.6 0 C92.63 0.64, 168.85 0.56, 235.49 0 M235.49 0 C245.3 -1.43, 253.7 4.25, 253.09 17.6 M235.49 0 C245.53 0.72, 254.68 4.47, 253.09 17.6 M253.09 17.6 C252.88 30.03, 251.87 42.89, 253.09 52.79 M253.09 17.6 C253.78 30.88, 253.16 44.53, 253.09 52.79 M253.09 52.79 C252.4 62.9, 245.92 71.04, 235.49 70.38 M253.09 52.79 C253.44 62.68, 247.45 70.75, 235.49 70.38 M235.49 70.38 C157.85 68.88, 77.74 70.92, 17.6 70.38 M235.49 70.38 C167.5 71.35, 100.15 70.76, 17.6 70.38 M17.6 70.38 C4.81 69.8, -1.87 63.96, 0 52.79 M17.6 70.38 C5.06 71.52, -0.36 64.83, 0 52.79 M0 52.79 C-0.68 40.36, 0.21 25.08, 0 17.6 M0 52.79 C-0.34 41.16, 0.6 29.59, 0 17.6 M0 17.6 C-0.81 5.94, 6.87 -0.74, 17.6 0 M0 17.6 C1.2 6.34, 4.03 1.87, 17.6 0" stroke="#1e1e1e" stroke-width="2" fill="none"></path></g><g transform="translate(1377.4999694824219 182.847412109375) rotate(0 42.919952392578125 12.5)"><text x="42.919952392578125" y="0" font-family="Virgil, Segoe UI Emoji" font-size="20px" fill="#1e1e1e" text-anchor="middle" style="white-space: pre;" direction="ltr" dominant-baseline="text-before-edge">Similarity</text></g><g stroke-linecap="round" transform="translate(961.357421875 54.146484375) rotate(0 144.685546875 158.984375)"><path d="M32 0 C77.47 -3.18, 129.69 0.04, 257.37 0 C279.97 0.55, 290.07 13.48, 289.37 32 C293.68 112.03, 290.77 190.99, 289.37 285.97 C286.52 309.87, 282.1 320.75, 257.37 317.97 C170.18 321.04, 80.97 321.67, 32 317.97 C11.9 320.14, 3.08 305.81, 0 285.97 C-0.96 219.75, 2.72 154.94, 0 32 C3.22 13.95, 7.18 3.4, 32 0" stroke="none" stroke-width="0" fill="#ffec99"></path><path d="M32 0 C111.38 1.01, 191.73 1.32, 257.37 0 M32 0 C121.53 -0.9, 209.82 -1.58, 257.37 0 M257.37 0 C278.22 0.27, 291.1 10.82, 289.37 32 M257.37 0 C280.52 -0.8, 287.4 12.3, 289.37 32 M289.37 32 C287.89 129.31, 289.17 227.35, 289.37 285.97 M289.37 32 C288.17 113.79, 288.92 196.27, 289.37 285.97 M289.37 285.97 C288.77 306.41, 276.83 317.99, 257.37 317.97 M289.37 285.97 C288.26 307.02, 279.42 319.7, 257.37 317.97 M257.37 317.97 C200.89 316.87, 146.91 315.46, 32 317.97 M257.37 317.97 C192.34 319.65, 126.89 319.99, 32 317.97 M32 317.97 C12.51 316.68, 0.31 305.79, 0 285.97 M32 317.97 C12.02 318.62, 0.62 305.37, 0 285.97 M0 285.97 C0.53 196.28, -0.5 107.75, 0 32 M0 285.97 C-0.78 219.98, -1.56 155.69, 0 32 M0 32 C-1.84 8.89, 11.9 -0.38, 32 0 M0 32 C-2.26 8.66, 9.04 -1.84, 32 0" stroke="#1e1e1e" stroke-width="2" fill="none"></path></g><g transform="translate(1067.2730026245117 59.146484375) rotate(0 38.76996612548828 12.5)"><text x="38.76996612548828" y="0" font-family="Virgil, Segoe UI Emoji" font-size="20px" fill="#1e1e1e" text-anchor="middle" style="white-space: pre;" direction="ltr" dominant-baseline="text-before-edge">Indexing</text></g><g stroke-linecap="round" transform="translate(976.83203125 198.369140625) rotate(0 126.54296875 35.19140625)"><path d="M17.6 0 C71.84 -1.17, 124.49 0.8, 235.49 0 C247.65 3.07, 253.04 7.29, 253.09 17.6 C249.85 31.7, 256.1 43.45, 253.09 52.79 C256.31 65.48, 250.6 71.08, 235.49 70.38 C172.59 72.74, 110.22 69.56, 17.6 70.38 C4.32 70.25, -2.38 63.17, 0 52.79 C2.66 46.66, -4.04 37.36, 0 17.6 C-2.41 9.44, 5.38 0.84, 17.6 0" stroke="none" stroke-width="0" fill="#ffffff"></path><path d="M17.6 0 C79.72 0.36, 139.77 1.13, 235.49 0 M17.6 0 C94.48 0.59, 172.54 0.54, 235.49 0 M235.49 0 C248.8 -0.69, 251.37 7.29, 253.09 17.6 M235.49 0 C249.16 -0.07, 254.24 3.85, 253.09 17.6 M253.09 17.6 C253.53 26.78, 251.56 36.91, 253.09 52.79 M253.09 17.6 C252.97 25.73, 252.34 34.77, 253.09 52.79 M253.09 52.79 C252.12 64.27, 247.84 71.88, 235.49 70.38 M253.09 52.79 C251.87 62.53, 245.37 69.31, 235.49 70.38 M235.49 70.38 C164.21 69.15, 94.48 70.34, 17.6 70.38 M235.49 70.38 C163 71.27, 89.04 71.17, 17.6 70.38 M17.6 70.38 C7.04 70.95, 0.54 62.84, 0 52.79 M17.6 70.38 C6.99 71.54, 0.42 66.74, 0 52.79 M0 52.79 C-0.96 45.84, -0.08 37.66, 0 17.6 M0 52.79 C-0.81 43.62, 0.72 36.03, 0 17.6 M0 17.6 C-1.96 4.12, 4.45 -1.6, 17.6 0 M0 17.6 C-1.96 6.14, 6.82 -2.21, 17.6 0" stroke="#1e1e1e" stroke-width="2" fill="none"></path></g><g transform="translate(1043.1150512695312 221.060546875) rotate(0 60.25994873046875 12.5)"><text x="60.25994873046875" y="0" font-family="Virgil, Segoe UI Emoji" font-size="20px" fill="#1e1e1e" text-anchor="middle" style="white-space: pre;" direction="ltr" dominant-baseline="text-before-edge">Parent/Child</text></g><g stroke-linecap="round" transform="translate(979.04296875 113.525390625) rotate(0 126.54296875 35.19140625)"><path d="M17.6 0 C86.67 0, 154.96 -1.43, 235.49 0 C248.22 -2.17, 253.75 3.01, 253.09 17.6 C256.91 31.63, 257.07 44.43, 253.09 52.79 C252.86 63.56, 247.72 71.62, 235.49 70.38 C155.65 68.86, 76.44 67.79, 17.6 70.38 C4.7 73.57, -0.6 67.73, 0 52.79 C-1.8 42.59, 0.13 26.09, 0 17.6 C-2.99 6.13, 4.56 -2.83, 17.6 0" stroke="none" stroke-width="0" fill="#ffffff"></path><path d="M17.6 0 C87.35 -1.57, 154.79 -1.55, 235.49 0 M17.6 0 C86.56 -0.45, 153.4 0.47, 235.49 0 M235.49 0 C248.9 -0.06, 254.09 4.11, 253.09 17.6 M235.49 0 C246.88 -0.2, 253.44 6.41, 253.09 17.6 M253.09 17.6 C251.7 27.7, 252.27 35.09, 253.09 52.79 M253.09 17.6 C252.27 26.47, 253.07 36.34, 253.09 52.79 M253.09 52.79 C252.03 62.79, 245.61 69.45, 235.49 70.38 M253.09 52.79 C253.69 65.75, 245.94 70.17, 235.49 70.38 M235.49 70.38 C173.02 72.63, 110.62 73.09, 17.6 70.38 M235.49 70.38 C184.7 69.2, 133.13 68.22, 17.6 70.38 M17.6 70.38 C6.84 71.39, 0.37 66.45, 0 52.79 M17.6 70.38 C4.34 71.14, -1.41 63.55, 0 52.79 M0 52.79 C-1.3 39.38, 1.57 25.33, 0 17.6 M0 52.79 C-1.2 44.48, -0.93 37.11, 0 17.6 M0 17.6 C-1.7 6.1, 6.7 -1.92, 17.6 0 M0 17.6 C-1.29 6.47, 6.98 0.81, 17.6 0" stroke="#1e1e1e" stroke-width="2" fill="none"></path></g><g transform="translate(1075.1559677124023 136.216796875) rotate(0 30.429969787597656 12.5)"><text x="30.429969787597656" y="0" font-family="Virgil, Segoe UI Emoji" font-size="20px" fill="#1e1e1e" text-anchor="middle" style="white-space: pre;" direction="ltr" dominant-baseline="text-before-edge">Direct</text></g><g stroke-linecap="round" transform="translate(977.0546875 290.541015625) rotate(0 126.54296875 35.19140625)"><path d="M17.6 0 C102.42 -3.24, 186.08 -3.83, 235.49 0 C249.79 3.39, 255.87 9.09, 253.09 17.6 C253.45 28.13, 254.18 41.83, 253.09 52.79 C255.25 67.6, 245.73 68.83, 235.49 70.38 C169.9 71.88, 105.83 71.9, 17.6 70.38 C9.15 66.9, 3.4 62.11, 0 52.79 C-2.91 39, -1.22 21.86, 0 17.6 C-0.22 5.03, 7.34 1.25, 17.6 0" stroke="none" stroke-width="0" fill="#ffffff"></path><path d="M17.6 0 C77.67 1.97, 137.41 1.83, 235.49 0 M17.6 0 C76.15 -1.37, 133.68 -2.11, 235.49 0 M235.49 0 C246.93 -0.18, 253.39 6.34, 253.09 17.6 M235.49 0 C246.23 -1.72, 252.2 4.57, 253.09 17.6 M253.09 17.6 C252.1 28.15, 253.01 41.47, 253.09 52.79 M253.09 17.6 C252.67 26.85, 252.39 37.37, 253.09 52.79 M253.09 52.79 C253.61 65.59, 246.11 70.2, 235.49 70.38 M253.09 52.79 C252.85 66.15, 248.55 71.22, 235.49 70.38 M235.49 70.38 C154.57 72.4, 74.58 73.15, 17.6 70.38 M235.49 70.38 C164.4 69.23, 92.62 69.63, 17.6 70.38 M17.6 70.38 C4.54 71.04, -1.22 63.67, 0 52.79 M17.6 70.38 C7.34 70.42, 1.52 63.03, 0 52.79 M0 52.79 C-2.05 44.52, -0.66 31.83, 0 17.6 M0 52.79 C-0.6 45.42, 0.67 36.85, 0 17.6 M0 17.6 C-1.12 6.39, 6.83 0.7, 17.6 0 M0 17.6 C0.35 6.31, 7.66 0.27, 17.6 0" stroke="#1e1e1e" stroke-width="2" fill="none"></path></g><g transform="translate(987.4177703857422 300.732421875) rotate(0 116.17988586425781 25)"><text x="116.17988586425781" y="0" font-family="Virgil, Segoe UI Emoji" font-size="20px" fill="#1e1e1e" text-anchor="middle" style="white-space: pre;" direction="ltr" dominant-baseline="text-before-edge">Multi-Vector Questions </text><text x="116.17988586425781" y="25" font-family="Virgil, Segoe UI Emoji" font-size="20px" fill="#1e1e1e" text-anchor="middle" style="white-space: pre;" direction="ltr" dominant-baseline="text-before-edge">Answered</text></g><g stroke-linecap="round" transform="translate(361.33984375 204.251953125) rotate(0 126.54296875 35.19140625)"><path d="M17.6 0 C80.76 -3.81, 144.55 0.97, 235.49 0 C245.45 2.3, 249.88 8.64, 253.09 17.6 C253.85 31.57, 255.62 42.96, 253.09 52.79 C252.19 63.94, 247.29 73.12, 235.49 70.38 C171.71 72.66, 104.93 71.2, 17.6 70.38 C8.48 68.19, -2.92 62.6, 0 52.79 C3.7 44.63, 1.23 33.13, 0 17.6 C-1.46 2.82, 6.09 2.84, 17.6 0" stroke="none" stroke-width="0" fill="#ffffff"></path><path d="M17.6 0 C71.59 1, 128.64 1.68, 235.49 0 M17.6 0 C75.15 -0.51, 131.25 0.23, 235.49 0 M235.49 0 C246.51 1.51, 254.35 7.84, 253.09 17.6 M235.49 0 C246.64 -0.25, 250.98 4.65, 253.09 17.6 M253.09 17.6 C251.71 29.91, 252.26 43.63, 253.09 52.79 M253.09 17.6 C253.48 27.27, 254.25 37.1, 253.09 52.79 M253.09 52.79 C254.34 63.84, 247.78 70.95, 235.49 70.38 M253.09 52.79 C254.98 63.92, 247.78 69.31, 235.49 70.38 M235.49 70.38 C169.28 71.18, 102.74 71.53, 17.6 70.38 M235.49 70.38 C185.84 70.34, 135.45 70.98, 17.6 70.38 M17.6 70.38 C5.24 69.22, 1.56 64.14, 0 52.79 M17.6 70.38 C6.13 71.34, 1.67 63.51, 0 52.79 M0 52.79 C1.47 43.03, -2.24 33.48, 0 17.6 M0 52.79 C0.11 39.28, 0.59 25.55, 0 17.6 M0 17.6 C1.05 4.71, 7.68 -1.65, 17.6 0 M0 17.6 C-1.86 4.69, 4.97 -0.23, 17.6 0" stroke="#1e1e1e" stroke-width="2" fill="none"></path></g><g transform="translate(415.8228759765625 226.943359375) rotate(0 72.0599365234375 12.5)"><text x="72.0599365234375" y="0" font-family="Virgil, Segoe UI Emoji" font-size="20px" fill="#1e1e1e" text-anchor="middle" style="white-space: pre;" direction="ltr" dominant-baseline="text-before-edge">Token Chunking</text></g><g stroke-linecap="round" transform="translate(655.876953125 10) rotate(0 144.685546875 217.205078125)"><path d="M32 0 C90.45 -2.37, 144.33 -0.8, 257.37 0 C281.19 1.66, 286.44 10.25, 289.37 32 C288.72 137.71, 289.98 240.68, 289.37 402.41 C286.18 422.92, 277.63 436.15, 257.37 434.41 C178.37 438.23, 102.99 436.24, 32 434.41 C7.12 435.62, -1.89 420.65, 0 402.41 C-1.54 312.29, -1.6 218.94, 0 32 C0.08 7.25, 13.84 3.49, 32 0" stroke="none" stroke-width="0" fill="#eaddd7"></path><path d="M32 0 C88.22 -2.11, 143.69 -1.96, 257.37 0 M32 0 C80.04 0.89, 126.55 0.99, 257.37 0 M257.37 0 C279.43 0.94, 289.11 9.42, 289.37 32 M257.37 0 C277.4 1.89, 290.73 12.41, 289.37 32 M289.37 32 C289.46 136.83, 288.9 239.72, 289.37 402.41 M289.37 32 C291.32 119.66, 291.09 206.83, 289.37 402.41 M289.37 402.41 C287.79 422.7, 280.6 433.73, 257.37 434.41 M289.37 402.41 C290.53 421.96, 278.35 433.34, 257.37 434.41 M257.37 434.41 C191.43 434.5, 127.33 434.39, 32 434.41 M257.37 434.41 C185.6 435.55, 114.35 436.01, 32 434.41 M32 434.41 C9.96 434.81, 0.23 424.74, 0 402.41 M32 434.41 C9.94 433.16, 0.23 423.78, 0 402.41 M0 402.41 C0.73 323.54, 1.84 246.15, 0 32 M0 402.41 C1.66 286.86, 2.26 171.16, 0 32 M0 32 C1.06 9.65, 10.4 -1.78, 32 0 M0 32 C2.03 10.22, 9.41 -1.69, 32 0" stroke="#1e1e1e" stroke-width="2" fill="none"></path></g><g transform="translate(753.6925430297852 15) rotate(0 46.869956970214844 12.5)"><text x="46.869956970214844" y="0" font-family="Virgil, Segoe UI Emoji" font-size="20px" fill="#1e1e1e" text-anchor="middle" style="white-space: pre;" direction="ltr" dominant-baseline="text-before-edge">Embedding</text></g><g stroke-linecap="round" transform="translate(672.9453125 66.580078125) rotate(0 126.54296875 35.19140625)"><path d="M17.6 0 C83.87 -1.1, 150.94 0.87, 235.49 0 C244.76 -2.24, 254.28 6.12, 253.09 17.6 C256.04 28.2, 250.07 37.08, 253.09 52.79 C250 63.18, 245.03 71.8, 235.49 70.38 C185.73 70.62, 129.81 73.62, 17.6 70.38 C6.47 71.98, 0.76 63.62, 0 52.79 C3.11 36.61, 0.23 25.05, 0 17.6 C-1.67 6.83, 5.19 1.38, 17.6 0" stroke="none" stroke-width="0" fill="#ffffff"></path><path d="M17.6 0 C70.56 0.06, 123.79 -0.93, 235.49 0 M17.6 0 C78.82 -0.25, 139.61 0.41, 235.49 0 M235.49 0 C249.15 -1.07, 254.99 5.01, 253.09 17.6 M235.49 0 C249.31 -0.15, 252.72 4.11, 253.09 17.6 M253.09 17.6 C255.11 27.36, 254.37 34.93, 253.09 52.79 M253.09 17.6 C254.04 31.38, 252.12 43.17, 253.09 52.79 M253.09 52.79 C251.55 63.07, 248 70.15, 235.49 70.38 M253.09 52.79 C254.53 63.97, 246.51 69.82, 235.49 70.38 M235.49 70.38 C160.57 72.95, 87.26 71.05, 17.6 70.38 M235.49 70.38 C171.76 72.1, 106.71 72.48, 17.6 70.38 M17.6 70.38 C4.94 71.26, -0.23 63.37, 0 52.79 M17.6 70.38 C4.24 70.68, 0.91 64.26, 0 52.79 M0 52.79 C1.88 39.96, -0.16 27.63, 0 17.6 M0 52.79 C0.66 40.82, 0.26 27.38, 0 17.6 M0 17.6 C-0.56 7.51, 6.74 -0.66, 17.6 0 M0 17.6 C-0.5 7.89, 6.9 -0.81, 17.6 0" stroke="#1e1e1e" stroke-width="2" fill="none"></path></g><g transform="translate(720.9983367919922 89.271484375) rotate(0 78.48994445800781 12.5)"><text x="78.48994445800781" y="0" font-family="Virgil, Segoe UI Emoji" font-size="20px" fill="#1e1e1e" text-anchor="middle" style="white-space: pre;" direction="ltr" dominant-baseline="text-before-edge">openai ada-002</text></g><g stroke-linecap="round" transform="translate(674.0234375 156.505859375) rotate(0 126.54296875 35.19140625)"><path d="M17.6 0 C85.22 3.28, 153.42 1.95, 235.49 0 C247.95 -0.53, 250.55 2.51, 253.09 17.6 C249.35 28.81, 256.34 34.07, 253.09 52.79 C255.46 67.6, 244.59 72.56, 235.49 70.38 C183.59 68.32, 131.97 66.38, 17.6 70.38 C6.42 68.07, 2.48 67.7, 0 52.79 C-2.11 37.96, 0.01 25.82, 0 17.6 C-2.55 9.02, 8.13 -1.35, 17.6 0" stroke="none" stroke-width="0" fill="#ffffff"></path><path d="M17.6 0 C72.21 1.62, 123.86 1.22, 235.49 0 M17.6 0 C88.5 -2.06, 157.87 -1.35, 235.49 0 M235.49 0 C249.1 1.65, 252.02 7.71, 253.09 17.6 M235.49 0 C249.25 -0.42, 254.48 5.22, 253.09 17.6 M253.09 17.6 C252.96 25.72, 253.8 36.69, 253.09 52.79 M253.09 17.6 C252.8 25.04, 252.57 32.87, 253.09 52.79 M253.09 52.79 C253.98 64.91, 247.89 72.36, 235.49 70.38 M253.09 52.79 C252.08 66.59, 245.52 72.26, 235.49 70.38 M235.49 70.38 C180.59 72.14, 127.42 70.46, 17.6 70.38 M235.49 70.38 C164.97 71.83, 94.49 72.42, 17.6 70.38 M17.6 70.38 C5.58 70.48, 0.37 64.31, 0 52.79 M17.6 70.38 C7.81 69.1, -0.42 63.61, 0 52.79 M0 52.79 C-1.47 38.96, -0.58 27.92, 0 17.6 M0 52.79 C0.31 43.5, -0.09 32.14, 0 17.6 M0 17.6 C1.77 7.59, 4.15 0, 17.6 0 M0 17.6 C2.19 4.64, 4.29 1.3, 17.6 0" stroke="#1e1e1e" stroke-width="2" fill="none"></path></g><g transform="translate(731.0964660644531 179.197265625) rotate(0 69.46994018554688 12.5)"><text x="69.46994018554688" y="0" font-family="Virgil, Segoe UI Emoji" font-size="20px" fill="#1e1e1e" text-anchor="middle" style="white-space: pre;" direction="ltr" dominant-baseline="text-before-edge">openai 3-large</text></g><g stroke-linecap="round" transform="translate(671.9609375 244.662109375) rotate(0 126.54296875 35.19140625)"><path d="M17.6 0 C93.94 5.04, 168.6 1.73, 235.49 0 C250.28 2.56, 251.56 2.58, 253.09 17.6 C254.95 28.59, 250.89 43.31, 253.09 52.79 C250.6 67, 247.22 71.55, 235.49 70.38 C176.07 67.11, 116.83 68.04, 17.6 70.38 C5.55 67.57, 0.97 62.15, 0 52.79 C-0.77 38.66, -1.07 30.41, 0 17.6 C-2.43 4.24, 7.77 -0.14, 17.6 0" stroke="none" stroke-width="0" fill="#ffffff"></path><path d="M17.6 0 C95.97 -1.24, 176.17 -0.9, 235.49 0 M17.6 0 C98.44 0.41, 179.66 0.42, 235.49 0 M235.49 0 C247.52 0.89, 252.6 7.3, 253.09 17.6 M235.49 0 C249.1 -1.93, 253.57 7.88, 253.09 17.6 M253.09 17.6 C254.63 26, 254.74 35.76, 253.09 52.79 M253.09 17.6 C251.88 32.65, 253.4 44.88, 253.09 52.79 M253.09 52.79 C253.3 62.57, 246.97 68.39, 235.49 70.38 M253.09 52.79 C253.94 66.28, 247.06 71.22, 235.49 70.38 M235.49 70.38 C191 71.95, 142.75 69.14, 17.6 70.38 M235.49 70.38 C162 69.12, 89.66 69.79, 17.6 70.38 M17.6 70.38 C7.17 70.71, 1.89 65.12, 0 52.79 M17.6 70.38 C3.6 72.37, -0.42 64.93, 0 52.79 M0 52.79 C-0.11 38.04, -0.13 25.6, 0 17.6 M0 52.79 C-0.86 39.78, -0.62 25.39, 0 17.6 M0 17.6 C0.55 7.27, 5.04 -0.82, 17.6 0 M0 17.6 C-1.77 6.65, 7.97 -0.22, 17.6 0" stroke="#1e1e1e" stroke-width="2" fill="none"></path></g><g transform="translate(729.4239654541016 267.353515625) rotate(0 69.07994079589844 12.5)"><text x="69.07994079589844" y="0" font-family="Virgil, Segoe UI Emoji" font-size="20px" fill="#1e1e1e" text-anchor="middle" style="white-space: pre;" direction="ltr" dominant-baseline="text-before-edge">openai 3-small</text></g><g stroke-linecap="round" transform="translate(670.52734375 341.134765625) rotate(0 126.54296875 35.19140625)"><path d="M17.6 0 C86.9 -2.45, 156.41 2.45, 235.49 0 C247.57 -2.81, 250.83 6.78, 253.09 17.6 C251.45 29.04, 251.39 39.59, 253.09 52.79 C250.12 67.79, 245.33 67.6, 235.49 70.38 C162.76 74.5, 86.78 74.26, 17.6 70.38 C2.9 73.6, -1.5 61.51, 0 52.79 C-1.52 41.85, -1.23 33.87, 0 17.6 C-3.53 7.6, 7.64 -1.55, 17.6 0" stroke="none" stroke-width="0" fill="#ffffff"></path><path d="M17.6 0 C95.44 -1, 169.14 0.12, 235.49 0 M17.6 0 C100.73 -1.57, 183.94 -2.3, 235.49 0 M235.49 0 C245.31 0.57, 251.65 7.55, 253.09 17.6 M235.49 0 C245.31 0.62, 253.14 7.06, 253.09 17.6 M253.09 17.6 C254.56 25.85, 252.36 38.85, 253.09 52.79 M253.09 17.6 C253.02 28.37, 253.49 40.17, 253.09 52.79 M253.09 52.79 C254.02 64.98, 248.92 70.08, 235.49 70.38 M253.09 52.79 C252.06 63.73, 248.74 70.9, 235.49 70.38 M235.49 70.38 C162.52 72.99, 88.48 72.24, 17.6 70.38 M235.49 70.38 C187.83 69, 139.85 69.28, 17.6 70.38 M17.6 70.38 C5.21 69.28, 0.22 64.66, 0 52.79 M17.6 70.38 C5.3 69.86, 1.42 62.46, 0 52.79 M0 52.79 C-0.23 43.07, 0.9 35.26, 0 17.6 M0 52.79 C0.53 41.71, 0.81 29.24, 0 17.6 M0 17.6 C0.49 5.93, 5.06 -0.18, 17.6 0 M0 17.6 C2.25 3.87, 6.95 1.28, 17.6 0" stroke="#1e1e1e" stroke-width="2" fill="none"></path></g><g transform="translate(718.4903945922852 363.826171875) rotate(0 78.57991790771484 12.5)"><text x="78.57991790771484" y="0" font-family="Virgil, Segoe UI Emoji" font-size="20px" fill="#1e1e1e" text-anchor="middle" style="white-space: pre;" direction="ltr" dominant-baseline="text-before-edge">bge-small-en-v1.5</text></g></svg>